<svg xmlns="http://www.w3.org/2000/svg" viewBox="0 0 1600 900" role="img" aria-label="ROS2 Multi-domain Template" font-family="IBM Plex Sans, system-ui, sans-serif">
  <defs>
    <marker id="ah" viewBox="0 0 10 10" refX="9" refY="5" markerWidth="6" markerHeight="6" orient="auto-start-reverse">
      <path d="M 0 0 L 10 5 L 0 10 z" fill="#4D7C7D"></path>
    </marker>
  </defs>

  <rect width="1600" height="900" fill="#FAFAF7"></rect>

  
  <rect x="540" y="60" width="520" height="100" rx="4" fill="#FFFFFF" stroke="#E5E2D8" stroke-width="2"></rect>
  <text x="800" y="123" fill="#1A1A1A" font-size="32" text-anchor="middle" font-weight="500">Vehicle Platform</text>

  
  <path d="M 800 175 L 800 235" stroke="#4D7C7D" stroke-width="2.5" fill="none" marker-end="url(#ah)"></path>

  
  <rect x="80" y="245" width="1440" height="500" rx="5" fill="#FFFFFF" stroke="#4D7C7D" stroke-width="2.5"></rect>
  <text x="800" y="308" fill="#1A1A1A" font-size="38" font-weight="500" letter-spacing="-0.5" text-anchor="middle">ROS2 Multi-domain Template</text>

  
  <text x="800" y="358" font-family="IBM Plex Mono, ui-monospace, Menlo, monospace" fill="#2F5959" font-size="22" letter-spacing="4" text-anchor="middle" font-weight="600">ISOLATED DOMAINS</text>

  
  <g>
    <rect x="130" y="400" width="300" height="290" rx="4" fill="#FAFAF7" stroke="#4D7C7D" stroke-width="2"></rect>
    <text x="155" y="445" font-family="IBM Plex Mono, ui-monospace, Menlo, monospace" fill="#1A1A1A" font-size="22" letter-spacing="2" font-weight="600">DOMAIN 01</text>
    <line x1="155" y1="465" x2="405" y2="465" stroke="#E5E2D8"></line>
    
    <circle cx="200" cy="530" r="22" fill="#FFFFFF" stroke="#4D7C7D" stroke-width="2"></circle>
    <circle cx="280" cy="530" r="22" fill="#FFFFFF" stroke="#4D7C7D" stroke-width="2"></circle>
    <circle cx="360" cy="530" r="22" fill="#FFFFFF" stroke="#4D7C7D" stroke-width="2"></circle>
    <circle cx="200" cy="610" r="22" fill="#FFFFFF" stroke="#4D7C7D" stroke-width="2"></circle>
    <circle cx="280" cy="610" r="22" fill="#FFFFFF" stroke="#4D7C7D" stroke-width="2"></circle>
    
    <line x1="222" y1="530" x2="258" y2="530" stroke="#9A988F" stroke-width="1.5"></line>
    <line x1="302" y1="530" x2="338" y2="530" stroke="#9A988F" stroke-width="1.5"></line>
    <line x1="280" y1="552" x2="280" y2="588" stroke="#9A988F" stroke-width="1.5"></line>
    <line x1="200" y1="552" x2="200" y2="588" stroke="#9A988F" stroke-width="1.5"></line>
  </g>

  
  <g>
    <rect x="460" y="400" width="300" height="290" rx="4" fill="#FAFAF7" stroke="#4D7C7D" stroke-width="2"></rect>
    <text x="485" y="445" font-family="IBM Plex Mono, ui-monospace, Menlo, monospace" fill="#1A1A1A" font-size="22" letter-spacing="2" font-weight="600">DOMAIN 02</text>
    <line x1="485" y1="465" x2="735" y2="465" stroke="#E5E2D8"></line>
    <circle cx="530" cy="530" r="22" fill="#FFFFFF" stroke="#4D7C7D" stroke-width="2"></circle>
    <circle cx="610" cy="530" r="22" fill="#FFFFFF" stroke="#4D7C7D" stroke-width="2"></circle>
    <circle cx="690" cy="530" r="22" fill="#FFFFFF" stroke="#4D7C7D" stroke-width="2"></circle>
    <circle cx="570" cy="610" r="22" fill="#FFFFFF" stroke="#4D7C7D" stroke-width="2"></circle>
    <circle cx="650" cy="610" r="22" fill="#FFFFFF" stroke="#4D7C7D" stroke-width="2"></circle>
    <line x1="552" y1="530" x2="588" y2="530" stroke="#9A988F" stroke-width="1.5"></line>
    <line x1="632" y1="530" x2="668" y2="530" stroke="#9A988F" stroke-width="1.5"></line>
    <line x1="592" y1="610" x2="628" y2="610" stroke="#9A988F" stroke-width="1.5"></line>
    <line x1="610" y1="552" x2="610" y2="588" stroke="#9A988F" stroke-width="1.5"></line>
  </g>

  
  <g>
    <rect x="790" y="400" width="300" height="290" rx="4" fill="#FAFAF7" stroke="#4D7C7D" stroke-width="2"></rect>
    <text x="815" y="445" font-family="IBM Plex Mono, ui-monospace, Menlo, monospace" fill="#1A1A1A" font-size="22" letter-spacing="2" font-weight="600">DOMAIN 03</text>
    <line x1="815" y1="465" x2="1065" y2="465" stroke="#E5E2D8"></line>
    <circle cx="860" cy="530" r="22" fill="#FFFFFF" stroke="#4D7C7D" stroke-width="2"></circle>
    <circle cx="940" cy="530" r="22" fill="#FFFFFF" stroke="#4D7C7D" stroke-width="2"></circle>
    <circle cx="1020" cy="530" r="22" fill="#FFFFFF" stroke="#4D7C7D" stroke-width="2"></circle>
    <circle cx="900" cy="610" r="22" fill="#FFFFFF" stroke="#4D7C7D" stroke-width="2"></circle>
    <circle cx="980" cy="610" r="22" fill="#FFFFFF" stroke="#4D7C7D" stroke-width="2"></circle>
    <line x1="882" y1="530" x2="918" y2="530" stroke="#9A988F" stroke-width="1.5"></line>
    <line x1="962" y1="530" x2="998" y2="530" stroke="#9A988F" stroke-width="1.5"></line>
    <line x1="922" y1="610" x2="958" y2="610" stroke="#9A988F" stroke-width="1.5"></line>
    <line x1="940" y1="552" x2="940" y2="588" stroke="#9A988F" stroke-width="1.5"></line>
  </g>

  
  <g>
    <rect x="1120" y="400" width="350" height="290" rx="4" fill="#FAFAF7" stroke="#C5C2B8" stroke-width="2" stroke-dasharray="5 5"></rect>
    <text x="1145" y="445" font-family="IBM Plex Mono, ui-monospace, Menlo, monospace" fill="#9A988F" font-size="22" letter-spacing="2" font-weight="600">DOMAIN N</text>
    <line x1="1145" y1="465" x2="1445" y2="465" stroke="#E5E2D8"></line>
    <text x="1295" y="580" fill="#9A988F" font-size="22" text-anchor="middle">— scalable —</text>
  </g>

  
  <text x="800" y="830" fill="#1A1A1A" font-size="22" text-anchor="middle" font-weight="500">Each domain runs in an isolated scope · standardized template for module integration.</text>
</svg>